External Loads File
version=1
nRows=85
nColumns=13
Range=5.000000e-03-10 seconds
endheader
time 	forceRightX 	forceRightY 	forceRightZ 	pointRightX 	pointRightY 	pointRightZ 	forceLeftX 	forceLeftY 	forceLeftZ 	pointLeftX 	pointLeftY 	pointLeftZ 		
2.505000 -116.920383 445.286814 -0.000000 0.463589 0.425431 -0.189576 43.087023 7.435206 -0.000000 0.187683 0.233822 -0.440431
2.510000 -119.784385 449.899996 -0.000000 0.464397 0.424417 -0.189688 43.670022 4.295372 -0.000000 0.187004 0.234787 -0.440359
2.515000 -122.410035 454.596461 -0.000000 0.465076 0.423316 -0.189798 44.153767 1.170318 -0.000000 0.186446 0.235931 -0.440415
2.520000 -125.006978 459.442189 -0.000000 0.465795 0.422288 -0.189914 44.557499 -1.993044 -0.000000 0.185785 0.237096 -0.440405
2.525000 -127.749808 464.443120 -0.000000 0.466478 0.421132 -0.190018 44.910124 -5.255763 -0.000000 0.185192 0.238094 -0.440521
2.530000 -130.331600 469.691834 -0.000000 0.467071 0.419987 -0.190178 45.225132 -8.724214 -0.000000 0.184575 0.239278 -0.440487
2.535000 -133.025713 475.119974 -0.000000 0.467745 0.418907 -0.190365 45.523742 -12.428884 -0.000000 0.183917 0.240424 -0.440442
2.540000 -135.398704 480.876289 -0.000000 0.468355 0.417575 -0.190502 45.805004 -16.441137 -0.000000 0.183356 0.241633 -0.440537
2.545000 -137.931128 486.856977 -0.000000 0.468943 0.416434 -0.190588 46.069640 -20.716233 -0.000000 0.182714 0.242842 -0.440503
2.550000 -140.096475 493.204791 -0.000000 0.469496 0.415168 -0.190642 46.273695 -25.259429 -0.000000 0.182090 0.244172 -0.440548
2.555000 -142.137852 499.780506 -0.000000 0.470028 0.413738 -0.190726 46.408826 -29.946064 -0.000000 0.181482 0.245404 -0.440506
2.560000 -144.135886 506.441457 -0.000000 0.470553 0.412412 -0.190742 46.474595 -34.621258 -0.000000 0.180867 0.246679 -0.440481
2.565000 -145.845170 513.132028 -0.000000 0.471054 0.411078 -0.190726 46.459164 -39.135230 -0.000000 0.180225 0.248005 -0.440493
2.570000 -147.493625 519.686197 -0.000000 0.471505 0.409796 -0.190739 46.389844 -43.302099 -0.000000 0.179628 0.249322 -0.440519
2.575000 -148.626374 526.155935 -0.000000 0.471963 0.408360 -0.190715 46.253583 -47.041066 -0.000000 0.179017 0.250703 -0.440566
2.580000 -149.857419 532.295129 -0.000000 0.472457 0.407012 -0.190781 46.162732 -50.242069 -0.000000 0.178397 0.251984 -0.440502
2.585000 -150.879308 538.116759 -0.000000 0.472911 0.405618 -0.190819 46.159080 -52.961222 -0.000000 0.177897 0.253367 -0.440668
2.590000 -151.544374 543.609388 -0.000000 0.473381 0.404144 -0.190859 46.240574 -55.335742 -0.000000 0.177254 0.254754 -0.440736
2.595000 -152.304980 548.639205 -0.000000 0.473880 0.402677 -0.190959 46.410416 -57.512760 -0.000000 0.176686 0.256084 -0.440708
2.600000 -153.051952 553.269588 -0.000000 0.474335 0.401231 -0.190990 46.613941 -59.685293 -0.000000 0.176161 0.257490 -0.440741
2.605000 -153.527496 557.621771 -0.000000 0.474859 0.399723 -0.191072 46.801896 -62.019213 -0.000000 0.175497 0.258968 -0.440753
2.610000 -154.059907 561.653538 -0.000000 0.475338 0.398163 -0.191074 47.007320 -64.581180 -0.000000 0.174969 0.260482 -0.440850
2.615000 -154.277287 565.496255 -0.000000 0.475928 0.396531 -0.191097 47.185906 -67.446058 -0.000000 0.174382 0.262084 -0.440865
2.620000 -154.707902 568.999108 -0.000000 0.476492 0.394972 -0.191141 47.386174 -70.566205 -0.000000 0.173753 0.263629 -0.440792
2.625000 -155.130017 572.182420 -0.000000 0.477010 0.393418 -0.191158 47.579442 -73.911795 -0.000000 0.173241 0.265213 -0.440797
2.630000 -155.093565 575.114139 -0.000000 0.477573 0.391724 -0.191157 47.719274 -77.445479 -0.000000 0.172672 0.266861 -0.440789
2.635000 -155.078296 577.620329 -0.000000 0.478140 0.390086 -0.191136 47.858767 -81.055259 -0.000000 0.172103 0.268475 -0.440862
2.640000 -154.898891 579.734578 -0.000000 0.478691 0.388425 -0.191174 47.932128 -84.688650 -0.000000 0.171642 0.270142 -0.440865
2.645000 -154.527167 581.487306 -0.000000 0.479252 0.386806 -0.191274 47.886095 -88.272830 -0.000000 0.171109 0.271874 -0.440775
2.650000 -154.009321 582.931755 -0.000000 0.479805 0.385068 -0.191275 47.679838 -91.731800 -0.000000 0.170612 0.273555 -0.440748
2.655000 -153.106237 584.230026 -0.000000 0.480310 0.383173 -0.191231 47.237221 -95.025273 -0.000000 0.170155 0.275320 -0.440746
2.660000 -152.439175 585.336952 -0.000000 0.480851 0.381398 -0.191209 46.652843 -98.044530 -0.000000 0.169696 0.277083 -0.440775
2.665000 -151.762909 586.439083 -0.000000 0.481312 0.379561 -0.191223 45.918307 -100.749452 -0.000000 0.169196 0.278852 -0.440833
2.670000 -151.066490 587.648426 -0.000000 0.481758 0.377665 -0.191286 45.095246 -103.099339 -0.000000 0.168732 0.280654 -0.440839
2.675000 -150.388747 589.041337 -0.000000 0.482163 0.375781 -0.191380 44.276555 -105.097429 -0.000000 0.168276 0.282553 -0.440788
2.680000 -149.961701 590.622974 -0.000000 0.482537 0.373878 -0.191445 43.573610 -106.788357 -0.000000 0.167839 0.284392 -0.440756
2.685000 -149.635864 592.476091 -0.000000 0.482859 0.371966 -0.191518 42.998469 -108.272448 -0.000000 0.167400 0.286231 -0.440812
2.690000 -149.263917 594.665328 -0.000000 0.483165 0.370039 -0.191617 42.551388 -109.640580 -0.000000 0.166949 0.288112 -0.440832
2.695000 -148.689011 597.254298 -0.000000 0.483466 0.368046 -0.191682 42.218689 -110.968916 -0.000000 0.166562 0.290057 -0.440859
2.700000 -148.125516 600.224997 -0.000000 0.483755 0.366042 -0.191757 42.027237 -112.305864 -0.000000 0.166176 0.291985 -0.440902
2.705000 -147.401930 603.654483 -0.000000 0.484032 0.363972 -0.191848 41.901039 -113.727114 -0.000000 0.165796 0.293968 -0.440931
2.710000 -146.798030 607.466878 -0.000000 0.484282 0.361896 -0.191972 41.832930 -115.254680 -0.000000 0.165410 0.295943 -0.440942
2.715000 -146.123683 611.626922 -0.000000 0.484577 0.359821 -0.192076 41.741654 -116.899663 -0.000000 0.165069 0.298022 -0.440936
2.720000 -145.399839 615.991012 -0.000000 0.484807 0.357687 -0.192142 41.599257 -118.623136 -0.000000 0.164764 0.300139 -0.440947
2.725000 -144.832851 620.360493 -0.000000 0.485020 0.355576 -0.192217 41.405059 -120.363597 -0.000000 0.164473 0.302238 -0.440947
2.730000 -144.225093 624.636394 -0.000000 0.485248 0.353377 -0.192246 41.092805 -122.092113 -0.000000 0.164207 0.304300 -0.440996
2.735000 -143.437592 628.701885 -0.000000 0.485490 0.351233 -0.192298 40.650654 -123.786480 -0.000000 0.163925 0.306518 -0.441025
2.740000 -142.648901 632.366041 -0.000000 0.485745 0.349038 -0.192367 40.156207 -125.416508 -0.000000 0.163686 0.308697 -0.441079
2.745000 -141.767934 635.511699 -0.000000 0.485982 0.346825 -0.192420 39.624807 -126.981885 -0.000000 0.163479 0.310890 -0.441111
2.750000 -140.651949 638.054318 -0.000000 0.486194 0.344624 -0.192397 39.038148 -128.491616 -0.000000 0.163302 0.313178 -0.441142
2.755000 -139.568149 639.850385 -0.000000 0.486447 0.342424 -0.192488 38.456787 -129.921414 -0.000000 0.163165 0.315398 -0.441169
2.760000 -138.226350 640.926182 -0.000000 0.486679 0.340190 -0.192536 37.858473 -131.265267 -0.000000 0.163051 0.317655 -0.441216
2.765000 -136.725644 641.273825 -0.000000 0.486865 0.337975 -0.192582 37.316530 -132.490143 -0.000000 0.162970 0.319942 -0.441247
2.770000 -134.764884 641.020575 -0.000000 0.487064 0.335666 -0.192652 36.790468 -133.602739 -0.000000 0.162891 0.322279 -0.441290
2.775000 -132.636600 640.217050 -0.000000 0.487270 0.333352 -0.192749 36.323545 -134.602967 -0.000000 0.162862 0.324623 -0.441338
2.780000 -130.432154 638.985537 -0.000000 0.487433 0.331042 -0.192840 35.901105 -135.521767 -0.000000 0.162879 0.326976 -0.441426
2.785000 -128.099810 637.469978 -0.000000 0.487578 0.328737 -0.192913 35.470091 -136.384926 -0.000000 0.162884 0.329409 -0.441433
2.790000 -125.743153 635.757603 -0.000000 0.487687 0.326381 -0.192959 35.003032 -137.175175 -0.000000 0.162932 0.331845 -0.441450
2.795000 -123.449241 633.899802 -0.000000 0.487763 0.323963 -0.192998 34.465622 -137.859191 -0.000000 0.163013 0.334240 -0.441460
2.800000 -121.090374 631.939383 -0.000000 0.487824 0.321575 -0.193100 33.791300 -138.424431 -0.000000 0.163146 0.336738 -0.441506
2.805000 -118.567987 629.883956 -0.000000 0.487873 0.319094 -0.193147 32.957913 -138.870997 -0.000000 0.163309 0.339253 -0.441533
2.810000 -116.199325 627.656059 -0.000000 0.487866 0.316672 -0.193166 32.068647 -139.188946 -0.000000 0.163498 0.341767 -0.441530
2.815000 -113.699117 625.278529 -0.000000 0.487858 0.314206 -0.193189 31.101358 -139.409685 -0.000000 0.163763 0.344290 -0.441556
2.820000 -111.021001 622.731739 -0.000000 0.487820 0.311726 -0.193135 30.079087 -139.547877 -0.000000 0.164059 0.346838 -0.441550
2.825000 -107.897389 620.087606 -0.000000 0.487752 0.309161 -0.193079 28.961686 -139.609362 -0.000000 0.164361 0.349451 -0.441550
2.830000 -103.622492 617.561405 -0.000000 0.487437 0.306029 -0.193401 27.596605 -139.609856 -0.000000 0.164747 0.351968 -0.441599
2.835000 -100.281173 614.949312 -0.000000 0.487237 0.303494 -0.193442 26.448677 -139.456672 -0.000000 0.165116 0.354564 -0.441652
2.840000 -96.695850 612.616589 -0.000000 0.487005 0.300909 -0.193282 25.216492 -139.226679 -0.000000 0.165551 0.357227 -0.441698
2.845000 -93.163191 610.639582 -0.000000 0.486809 0.298315 -0.193102 23.903180 -138.932039 -0.000000 0.166049 0.359895 -0.441715
2.850000 -89.809082 609.045293 -0.000000 0.486570 0.295762 -0.192916 22.480468 -138.580130 -0.000000 0.166563 0.362548 -0.441737
2.855000 -86.372497 607.827854 -0.000000 0.485985 0.293182 -0.193721 20.861081 -138.181218 -0.000000 0.167108 0.365198 -0.441728
2.860000 -82.890635 606.856757 -0.000000 0.485575 0.290528 -0.193781 19.049047 -137.734135 -0.000000 0.167714 0.367880 -0.441773
2.865000 -79.448065 605.938585 -0.000000 0.485053 0.287912 -0.193789 17.077072 -137.239470 -0.000000 0.168320 0.370615 -0.441823
2.870000 -76.146512 604.853590 -0.000000 0.484541 0.285283 -0.193825 15.002491 -136.686645 -0.000000 0.168983 0.373357 -0.441783
2.875000 -72.952436 603.408989 -0.000000 0.483967 0.282685 -0.193857 12.889976 -136.048714 -0.000000 0.169643 0.376152 -0.441763
2.880000 -69.895576 601.434118 -0.000000 0.483335 0.280052 -0.193865 10.864281 -135.282982 -0.000000 0.170365 0.378908 -0.441858
2.885000 -66.024470 598.907801 -0.000000 0.482570 0.277406 -0.193896 8.837408 -134.355641 -0.000000 0.171057 0.382133 -0.441764
2.890000 -63.239443 595.538747 -0.000000 0.481901 0.274836 -0.194031 7.320162 -133.188499 -0.000000 0.171809 0.384840 -0.441782
2.895000 -60.053320 591.478540 -0.000000 0.481090 0.272245 -0.194057 6.004982 -131.761559 -0.000000 0.172562 0.387665 -0.441809
2.900000 -56.953545 586.727811 -0.000000 0.480223 0.269664 -0.194062 4.975350 -130.026298 -0.000000 0.173417 0.390356 -0.441775
2.905000 -53.832666 581.414330 -0.000000 0.479314 0.267046 -0.194090 4.157855 -127.950196 -0.000000 0.174259 0.392992 -0.441764
2.910000 -50.266402 575.757806 -0.000000 0.478246 0.264419 -0.193941 3.419886 -125.538110 -0.000000 0.175137 0.395840 -0.441800
2.915000 -47.168705 569.916163 -0.000000 0.477164 0.261874 -0.193982 2.930741 -122.842777 -0.000000 0.176070 0.398522 -0.441765
2.920000 -43.699403 564.201284 -0.000000 0.476049 0.259254 -0.193956 2.478163 -119.986691 -0.000000 0.177038 0.401408 -0.441833
2.925000 -40.706434 558.704837 -0.000000 0.474944 0.256670 -0.193985 2.216389 -117.123012 -0.000000 0.178070 0.404114 -0.441758
